# FreeCAD v0.20 build2 Arch module
# http://www.freecadweb.org
mtllib Aluminum Spacer 3mm.mtl
o Part__Feature018
usemtl color_d1d1d1
v 278.085388 10.0 6.322987
v 276.76767 10.0 7.893378
v 279.156921 10.0 7.6
v 277.381561 10.0 8.625
v 279.727081 10.0 9.166489
v 276.641693 10.0 5.489475
v 275.940552 10.0 7.415845
v 277.708221 10.0 9.522468
v 275.0 10.0 5.2
v 275.0 10.0 7.25
v 277.708221 10.0 10.477532
v 279.727081 10.0 10.833511
v 273.358307 10.0 5.489475
v 274.059448 10.0 7.415845
v 277.381561 10.0 11.375
v 279.156921 10.0 12.4
v 271.914612 10.0 6.322987
v 273.23233 10.0 7.893378
v 276.76767 10.0 12.106622
v 278.085388 10.0 13.677013
v 275.940552 10.0 12.584155
v 270.843079 10.0 7.6
v 272.618439 10.0 8.625
v 276.641693 10.0 14.510525
v 272.291779 10.0 9.522468
v 270.272919 10.0 9.166489
v 272.291779 10.0 10.477532
v 275.0 10.0 12.75
v 275.0 10.0 14.8
v 270.272919 10.0 10.833511
v 272.618439 10.0 11.375
v 274.059448 10.0 12.584155
v 273.358307 10.0 14.510525
v 273.23233 10.0 12.106622
v 270.843079 10.0 12.4
v 271.914612 10.0 13.677013
v 277.381561 7.0 8.625
v 278.085388 7.0 6.322987
v 279.156921 7.0 7.6
v 279.727081 7.0 9.166489
v 276.76767 7.0 7.893378
v 275.940552 7.0 7.415845
v 276.641693 7.0 5.489475
v 277.708221 7.0 9.522468
v 279.727081 7.0 10.833511
v 275.0 7.0 7.25
v 275.0 7.0 5.2
v 277.708221 7.0 10.477532
v 279.156921 7.0 12.4
v 274.059448 7.0 7.415845
v 273.358307 7.0 5.489475
v 277.381561 7.0 11.375
v 273.23233 7.0 7.893378
v 271.914612 7.0 6.322987
v 278.085388 7.0 13.677013
v 276.76767 7.0 12.106622
v 270.843079 7.0 7.6
v 272.618439 7.0 8.625
v 272.291779 7.0 9.522468
v 276.641693 7.0 14.510525
v 275.940552 7.0 12.584155
v 270.272919 7.0 9.166489
v 272.291779 7.0 10.477532
v 275.0 7.0 14.8
v 275.0 7.0 12.75
v 270.272919 7.0 10.833511
v 272.618439 7.0 11.375
v 273.358307 7.0 14.510525
v 274.059448 7.0 12.584155
v 270.843079 7.0 12.4
v 273.23233 7.0 12.106622
v 271.914612 7.0 13.677013
v 275.0 9.8 15.0
v 275.0 7.2 15.0
v 276.710114 7.2 14.698463
v 276.710114 9.8 14.698463
v 278.213928 7.2 13.830222
v 278.213928 9.8 13.830222
v 279.330139 7.2 12.5
v 279.330139 9.8 12.5
v 279.924042 7.2 10.868241
v 279.924042 9.8 10.868241
v 279.924042 7.2 9.131759
v 279.924042 9.8 9.131759
v 279.330139 7.2 7.5
v 279.330139 9.8 7.5
v 278.213928 9.8 6.169778
v 278.213928 7.2 6.169778
v 276.710114 9.8 5.301537
v 276.710114 7.2 5.301537
v 275.0 9.8 5.0
v 275.0 7.2 5.0
v 273.289886 9.8 5.301537
v 273.289886 7.2 5.301537
v 271.786072 7.2 6.169778
v 271.786072 9.8 6.169778
v 270.669861 9.8 7.5
v 270.669861 7.2 7.5
v 270.075958 7.2 9.131759
v 270.075958 9.8 9.131759
v 270.075958 9.8 10.868241
v 270.075958 7.2 10.868241
v 270.669861 7.2 12.5
v 270.669861 9.8 12.5
v 271.786072 7.2 13.830222
v 271.786072 9.8 13.830222
v 273.289886 9.8 14.698463
v 273.289886 7.2 14.698463
v 275.0 9.8 12.55
v 275.872162 9.8 12.396216
v 275.0 7.2 12.55
v 275.872162 7.2 12.396216
v 276.639099 9.8 11.953413
v 276.639099 7.2 11.953413
v 277.208374 9.8 11.275
v 277.208374 7.2 11.275
v 277.511261 9.8 10.442802
v 277.511261 7.2 10.442802
v 277.511261 9.8 9.557198
v 277.511261 7.2 9.557198
v 277.208374 9.8 8.725
v 277.208374 7.2 8.725
v 276.639099 9.8 8.046587
v 276.639099 7.2 8.046587
v 275.872162 7.2 7.603784
v 275.872162 9.8 7.603784
v 275.0 7.2 7.45
v 275.0 9.8 7.45
v 274.127838 7.2 7.603784
v 274.127838 9.8 7.603784
v 273.360901 7.2 8.046587
v 273.360901 9.8 8.046587
v 272.791626 7.2 8.725
v 272.791626 9.8 8.725
v 272.488739 9.8 9.557198
v 272.488739 7.2 9.557198
v 272.488739 9.8 10.442802
v 272.488739 7.2 10.442802
v 272.791626 9.8 11.275
v 272.791626 7.2 11.275
v 273.360901 9.8 11.953413
v 273.360901 7.2 11.953413
v 274.127838 9.8 12.396216
v 274.127838 7.2 12.396216
vn 0.0 1.0 -0.0
vn 0.0 1.0 -0.0
vn -0.0 1.0 0.0
vn 0.0 1.0 -0.0
vn 0.0 1.0 0.0
vn 0.0 1.0 0.0
vn 0.0 1.0 0.0
vn 0.0 1.0 0.0
vn 0.0 1.0 -0.0
vn -0.0 1.0 0.0
vn -0.0 1.0 0.0
vn 0.0 1.0 -0.0
vn 0.0 1.0 0.0
vn 0.0 1.0 -0.0
vn 0.0 1.0 -0.0
vn 0.0 1.0 0.0
vn 0.0 1.0 -0.0
vn 0.0 1.0 0.0
vn 0.0 1.0 -0.0
vn 0.0 1.0 0.0
vn 0.0 1.0 -0.0
vn 0.0 1.0 0.0
vn 0.0 1.0 -0.0
vn 0.0 1.0 0.0
vn 0.0 1.0 -0.0
vn -0.0 1.0 0.0
vn 0.0 1.0 -0.0
vn 0.0 1.0 -0.0
vn 0.0 1.0 0.0
vn 0.0 1.0 -0.0
vn 0.0 1.0 0.0
vn 0.0 1.0 -0.0
vn 0.0 1.0 0.0
vn -0.0 1.0 0.0
vn 0.0 1.0 -0.0
vn 0.0 1.0 -0.0
vn 0.0 -1.0 0.0
vn 0.0 -1.0 0.0
vn 0.0 -1.0 -0.0
vn 0.0 -1.0 0.0
vn 0.0 -1.0 0.0
vn 0.0 -1.0 0.0
vn 0.0 -1.0 -0.0
vn 0.0 -1.0 0.0
vn 0.0 -1.0 0.0
vn 0.0 -1.0 0.0
vn 0.0 -1.0 -0.0
vn 0.0 -1.0 -0.0
vn 0.0 -1.0 0.0
vn 0.0 -1.0 0.0
vn 0.0 -1.0 -0.0
vn 0.0 -1.0 0.0
vn 0.0 -1.0 0.0
vn 0.0 -1.0 -0.0
vn 0.0 -1.0 0.0
vn 0.0 -1.0 0.0
vn 0.0 -1.0 -0.0
vn 0.0 -1.0 -0.0
vn 0.0 -1.0 0.0
vn 0.0 -1.0 0.0
vn 0.0 -1.0 0.0
vn 0.0 -1.0 0.0
vn 0.0 -1.0 0.0
vn 0.0 -1.0 0.0
vn 0.0 -1.0 0.0
vn 0.0 -1.0 0.0
vn 0.0 -1.0 0.0
vn 0.0 -1.0 -0.0
vn 0.0 -1.0 0.0
vn 0.0 -1.0 0.0
vn 0.0 -1.0 -0.0
vn 0.0 -1.0 0.0
vn 0.1736467182636261 0.0 0.9848079681396484
vn 0.5000057816505432 0.0 0.8660220503807068
vn 0.1736467182636261 0.0 0.9848079681396484
vn 0.7660381197929382 0.0 0.6427950263023376
vn 0.5000057816505432 0.0 0.8660220503807068
vn 0.939694344997406 0.0 0.3420155942440033
vn 0.7660381197929382 0.0 0.6427950263023376
vn 1.0 0.0 0.0
vn 0.939694344997406 0.0 0.3420155942440033
vn 0.939694344997406 0.0 -0.3420155942440033
vn 1.0 0.0 -0.0
vn 0.939694344997406 0.0 -0.3420155942440033
vn 0.7660381197929382 0.0 -0.6427950263023376
vn 0.7660381197929382 0.0 -0.6427950263023376
vn 0.5000056028366089 0.0 -0.8660221099853516
vn 0.5000056028366089 0.0 -0.8660221099853516
vn 0.1736469864845276 0.0 -0.9848079085350037
vn 0.1736469864845276 0.0 -0.9848079085350037
vn -0.1736469864845276 -0.0 -0.9848079085350037
vn -0.5000056028366089 -0.0 -0.8660221099853516
vn -0.1736469864845276 0.0 -0.9848079085350037
vn -0.5000056028366089 -0.0 -0.8660221099853516
vn -0.7660381197929382 -0.0 -0.6427950263023376
vn -0.939694344997406 -0.0 -0.3420155942440033
vn -0.7660381197929382 0.0 -0.6427950263023376
vn -0.939694344997406 -0.0 -0.3420155942440033
vn -1.0 -0.0 0.0
vn -0.939694344997406 0.0 0.3420155942440033
vn -1.0 0.0 -0.0
vn -0.939694344997406 0.0 0.3420155942440033
vn -0.7660381197929382 0.0 0.6427950263023376
vn -0.7660381197929382 0.0 0.6427950263023376
vn -0.5000057816505432 0.0 0.8660220503807068
vn -0.5000057816505432 0.0 0.8660220503807068
vn -0.1736467182636261 0.0 0.9848079681396484
vn -0.1736467182636261 0.0 0.9848079681396484
vn -0.17364613711833954 -0.0 -0.9848081469535828
vn -0.17364613711833954 0.0 -0.9848081469535828
vn -0.5000101327896118 0.0 -0.866019606590271
vn -0.5000101327896118 -0.0 -0.866019606590271
vn -0.7660342454910278 0.0 -0.6427998542785645
vn -0.7660342454910278 -0.0 -0.6427998542785645
vn -0.9396954774856567 0.0 -0.34201210737228394
vn -0.9396954774856567 -0.0 -0.34201210737228394
vn -1.0 0.0 0.0
vn -1.0 -0.0 -0.0
vn -0.9396954774856567 0.0 0.34201210737228394
vn -0.9396954774856567 0.0 0.34201210737228394
vn -0.7660342454910278 0.0 0.6427998542785645
vn -0.7660342454910278 0.0 0.6427998542785645
vn -0.17364613711833954 0.0 0.9848081469535828
vn -0.5000101327896118 0.0 0.866019606590271
vn -0.5000101327896118 0.0 0.866019606590271
vn -0.17364613711833954 0.0 0.9848081469535828
vn 0.5000101327896118 -0.0 0.866019606590271
vn 0.17364613711833954 0.0 0.9848081469535828
vn 0.17364613711833954 0.0 0.9848081469535828
vn 0.7660342454910278 -0.0 0.6427998542785645
vn 0.5000101327896118 0.0 0.866019606590271
vn 0.7660342454910278 0.0 0.6427998542785645
vn 0.9396954774856567 0.0 0.34201210737228394
vn 0.9396954774856567 0.0 0.34201210737228394
vn 1.0 0.0 0.0
vn 1.0 0.0 -0.0
vn 0.9396954774856567 0.0 -0.34201210737228394
vn 0.9396954774856567 0.0 -0.34201210737228394
vn 0.7660342454910278 0.0 -0.6427998542785645
vn 0.7660342454910278 0.0 -0.6427998542785645
vn 0.5000101327896118 0.0 -0.866019606590271
vn 0.5000101327896118 0.0 -0.866019606590271
vn 0.17364613711833954 0.0 -0.9848081469535828
vn 0.17364613711833954 0.0 -0.9848081469535828
vn -0.12372297048568726 0.7016739845275879 0.7016738653182983
vn -0.12372331321239471 0.7016796469688416 0.7016682028770447
vn -0.3562549352645874 0.7016579508781433 0.6170563697814941
vn -0.35624587535858154 0.701688826084137 0.6170264482498169
vn -0.5457931160926819 0.7016924619674683 0.45797115564346313
vn -0.545818567276001 0.7016504406929016 0.4580051600933075
vn -0.6695301532745361 0.7016723155975342 0.2436910718679428
vn -0.6695103645324707 0.7016957402229309 0.24367813766002655
vn -0.7124999761581421 0.7016721963882446 0.0
vn -0.7124999165534973 0.7016721963882446 0.0
vn -0.6695083975791931 0.7016957998275757 -0.2436830997467041
vn -0.6695315837860107 0.7016728520393372 -0.24368585646152496
vn -0.5458254218101501 0.70164954662323 -0.4579984247684479
vn -0.5457879304885864 0.7016910910606384 -0.4579795002937317
vn -0.35623979568481445 0.7016887068748474 -0.6170300841331482
vn -0.3562607169151306 0.7016584873199463 -0.617052435874939
vn -0.1237243115901947 0.7016738057136536 -0.7016738057136536
vn -0.12372235208749771 0.7016786932945251 -0.7016692757606506
vn 0.12372344732284546 0.7016788125038147 -0.7016689777374268
vn 0.12372317165136337 0.7016738653182983 -0.7016739249229431
vn 0.3562397360801697 0.7016887664794922 -0.6170300841331482
vn 0.3562606871128082 0.7016585469245911 -0.6170523762702942
vn 0.5457934737205505 0.7016919255256653 -0.45797160267829895
vn 0.545818567276001 0.7016504406929016 -0.4580051600933075
vn 0.6695301532745361 0.701672375202179 -0.24369101226329803
vn 0.6695106625556946 0.701695442199707 -0.2436782419681549
vn 0.7124999761581421 0.7016721963882446 0.0
vn 0.7124999165534973 0.7016721963882446 0.0
vn 0.6695080399513245 0.7016961574554443 0.2436830699443817
vn 0.6695315837860107 0.7016728520393372 0.24368585646152496
vn 0.5457874536514282 0.7016916275024414 0.45797908306121826
vn 0.5458255410194397 0.7016494870185852 0.4579983055591583
vn 0.35626083612442017 0.7016586065292358 0.6170523166656494
vn 0.3562394082546234 0.7016894817352295 0.6170294880867004
vn 0.12372202426195145 0.701679527759552 0.7016685605049133
vn 0.1237243115901947 0.7016738057136536 0.7016738057136536
vn -0.12372253835201263 0.7016739845275879 -0.7016739845275879
vn -0.12372487783432007 0.7016699910163879 -0.7016775012016296
vn -0.3562627136707306 0.7016608715057373 -0.617048442363739
vn -0.35624149441719055 0.7016854882240295 -0.6170327663421631
vn -0.5457835793495178 0.701693058013916 -0.4579816162586212
vn -0.545827329158783 0.7016505002975464 -0.45799461007118225
vn -0.6695595383644104 0.7016435861587524 -0.2436932474374771
vn -0.6695289611816406 0.7016719579696655 -0.24369506537914276
vn -0.7124999165534973 0.7016721963882446 0.0
vn -0.7124999165534973 0.7016721963882446 0.0
vn -0.6695322394371033 0.7016730308532715 0.243683323264122
vn -0.6695542931556702 0.7016446590423584 0.24370427429676056
vn -0.5457831621170044 0.701693594455719 0.45798125863075256
vn -0.5458275079727173 0.7016505599021912 0.4579944312572479
vn -0.3562498092651367 0.7016871571540833 0.6170260906219482
vn -0.3562529683113098 0.7016611099243164 0.6170538663864136
vn -0.12372338026762009 0.7016690969467163 0.7016787528991699
vn -0.1237245723605156 0.7016738057136536 0.7016738057136536
vn 0.12372338771820068 0.7016690969467163 0.7016787528991699
vn 0.1237245723605156 0.7016738057136536 0.7016738057136536
vn 0.35624977946281433 0.7016871571540833 0.6170260906219482
vn 0.3562529385089874 0.7016611099243164 0.6170538067817688
vn 0.5458168387413025 0.7016489505767822 0.4580095410346985
vn 0.5457961559295654 0.7016919851303101 0.457968145608902
vn 0.6695322394371033 0.7016730308532715 0.243683323264122
vn 0.6695542931556702 0.7016446590423584 0.24370427429676056
vn 0.7124999165534973 0.7016721963882446 -0.0
vn 0.7124999165534973 0.7016721963882446 -0.0
vn 0.6695595383644104 0.7016435861587524 -0.2436932474374771
vn 0.6695290803909302 0.7016719579696655 -0.24369509518146515
vn 0.5458272695541382 0.7016505599021912 -0.45799458026885986
vn 0.5457835793495178 0.701693058013916 -0.4579816162586212
vn 0.35625016689300537 0.701686441898346 -0.617026686668396
vn 0.35625314712524414 0.7016618251800537 -0.6170529127120972
vn 0.12372324615716934 0.7016699314117432 -0.7016779184341431
vn 0.12372422963380814 0.7016738057136536 -0.7016738057136536
vn 0.12372253835201263 -0.7016739845275879 -0.7016739845275879
vn 0.12372487783432007 -0.7016699910163879 -0.7016775012016296
vn 0.3562627136707306 -0.7016608715057373 -0.617048442363739
vn 0.35624149441719055 -0.7016854882240295 -0.6170327663421631
vn 0.5457835793495178 -0.701693058013916 -0.4579816162586212
vn 0.545827329158783 -0.7016505002975464 -0.45799461007118225
vn 0.6695595383644104 -0.7016435861587524 -0.2436932474374771
vn 0.6695289611816406 -0.7016719579696655 -0.24369506537914276
vn 0.7124999165534973 -0.7016721963882446 0.0
vn 0.7124999165534973 -0.7016721963882446 0.0
vn 0.6695595383644104 -0.7016435861587524 0.2436932474374771
vn 0.6695290803909302 -0.7016719579696655 0.24369509518146515
vn 0.5457831621170044 -0.701693594455719 0.45798125863075256
vn 0.5458275079727173 -0.7016505599021912 0.4579944312572479
vn 0.35626307129859924 -0.70166015625 0.6170490980148315
vn 0.3562406003475189 -0.7016862630844116 0.6170324683189392
vn 0.12372255325317383 -0.7016739249229431 0.7016739845275879
vn 0.12372534722089767 -0.7016692161560059 0.7016782164573669
vn -0.12372253835201263 -0.7016739845275879 0.7016739845275879
vn -0.12372536212205887 -0.7016692757606506 0.7016782760620117
vn -0.35624977946281433 -0.7016871571540833 0.6170260906219482
vn -0.3562529385089874 -0.7016611099243164 0.6170538067817688
vn -0.5458168387413025 -0.7016489505767822 0.4580095410346985
vn -0.5457961559295654 -0.7016919851303101 0.457968145608902
vn -0.6695595383644104 -0.7016435861587524 0.2436932474374771
vn -0.6695289611816406 -0.7016719579696655 0.24369506537914276
vn -0.7124999165534973 -0.7016721963882446 0.0
vn -0.7124999165534973 -0.7016721963882446 0.0
vn -0.6695595383644104 -0.7016435861587524 -0.2436932474374771
vn -0.6695290803909302 -0.7016719579696655 -0.24369509518146515
vn -0.5458272695541382 -0.7016505599021912 -0.45799458026885986
vn -0.5457835793495178 -0.701693058013916 -0.4579816162586212
vn -0.35624149441719055 -0.7016856074333191 -0.6170327663421631
vn -0.3562627136707306 -0.7016608715057373 -0.6170485019683838
vn -0.12372487783432007 -0.7016700506210327 -0.7016775012016296
vn -0.12372255325317383 -0.7016739249229431 -0.7016739845275879
vn 0.12372297048568726 -0.7016739845275879 0.7016738653182983
vn 0.12372331321239471 -0.7016796469688416 0.7016682028770447
vn 0.3562549352645874 -0.7016579508781433 0.6170563697814941
vn 0.35624587535858154 -0.701688826084137 0.6170264482498169
vn 0.5457931160926819 -0.7016924619674683 0.45797115564346313
vn 0.545818567276001 -0.7016504406929016 0.4580051600933075
vn 0.6695301532745361 -0.7016723155975342 0.2436910718679428
vn 0.6695103645324707 -0.7016957402229309 0.24367813766002655
vn 0.7124999761581421 -0.7016721963882446 0.0
vn 0.7124999165534973 -0.7016721963882446 0.0
vn 0.6695083975791931 -0.7016957998275757 -0.2436830997467041
vn 0.6695315837860107 -0.7016728520393372 -0.24368585646152496
vn 0.5458254218101501 -0.70164954662323 -0.4579984247684479
vn 0.5457879304885864 -0.7016910910606384 -0.4579795002937317
vn 0.35623979568481445 -0.7016887068748474 -0.6170300841331482
vn 0.3562607169151306 -0.7016584873199463 -0.617052435874939
vn 0.12372346222400665 -0.7016788125038147 -0.7016689777374268
vn 0.12372316420078278 -0.7016738653182983 -0.7016738653182983
vn -0.12372344732284546 -0.7016788125038147 -0.7016689777374268
vn -0.12372317165136337 -0.7016738653182983 -0.7016739249229431
vn -0.3562397360801697 -0.7016887664794922 -0.6170300841331482
vn -0.3562606871128082 -0.7016585469245911 -0.6170523762702942
vn -0.5457934737205505 -0.7016919255256653 -0.45797160267829895
vn -0.545818567276001 -0.7016504406929016 -0.4580051600933075
vn -0.6695301532745361 -0.701672375202179 -0.24369101226329803
vn -0.6695106625556946 -0.701695442199707 -0.2436782419681549
vn -0.7124999761581421 -0.7016721963882446 0.0
vn -0.7124999165534973 -0.7016721963882446 -0.0
vn -0.6695080399513245 -0.7016961574554443 0.2436830699443817
vn -0.6695315837860107 -0.7016728520393372 0.24368585646152496
vn -0.5457874536514282 -0.7016916275024414 0.45797908306121826
vn -0.5458255410194397 -0.7016494870185852 0.4579983055591583
vn -0.35626083612442017 -0.7016586065292358 0.6170523166656494
vn -0.3562394082546234 -0.7016894817352295 0.6170294880867004
vn -0.12372331321239471 -0.7016796469688416 0.7016681432723999
vn -0.12372297793626785 -0.7016739249229431 0.7016739249229431
f 1//1 2//1 3//1 
f 3//2 4//2 5//2 
f 2//3 4//3 3//3 
f 6//4 7//4 1//4 
f 1//5 7//5 2//5 
f 4//6 8//6 5//6 
f 9//7 10//7 6//7 
f 6//8 10//8 7//8 
f 5//9 11//9 12//9 
f 8//10 11//10 5//10 
f 13//11 14//11 9//11 
f 9//12 14//12 10//12 
f 12//13 15//13 16//13 
f 11//14 15//14 12//14 
f 13//15 17//15 14//15 
f 17//16 18//16 14//16 
f 15//17 19//17 16//17 
f 19//18 20//18 16//18 
f 19//19 21//19 20//19 
f 18//20 22//20 23//20 
f 17//21 22//21 18//21 
f 21//22 24//22 20//22 
f 25//23 26//23 27//23 
f 23//24 26//24 25//24 
f 22//25 26//25 23//25 
f 28//26 29//26 21//26 
f 21//27 29//27 24//27 
f 27//28 30//28 31//28 
f 26//29 30//29 27//29 
f 32//30 33//30 28//30 
f 34//31 33//31 32//31 
f 28//32 33//32 29//32 
f 30//33 35//33 31//33 
f 35//34 36//34 31//34 
f 31//35 36//35 34//35 
f 34//36 36//36 33//36 
f 37//37 38//37 39//37 
f 37//38 39//38 40//38 
f 37//39 41//39 38//39 
f 42//40 43//40 38//40 
f 42//41 38//41 41//41 
f 44//42 40//42 45//42 
f 44//43 37//43 40//43 
f 46//44 47//44 43//44 
f 46//45 43//45 42//45 
f 48//46 44//46 45//46 
f 49//47 48//47 45//47 
f 50//48 51//48 47//48 
f 50//49 47//49 46//49 
f 52//50 48//50 49//50 
f 53//51 54//51 51//51 
f 53//52 51//52 50//52 
f 55//53 56//53 52//53 
f 55//54 52//54 49//54 
f 57//55 53//55 58//55 
f 57//56 54//56 53//56 
f 59//57 57//57 58//57 
f 60//58 61//58 56//58 
f 60//59 56//59 55//59 
f 62//60 59//60 63//60 
f 62//61 57//61 59//61 
f 64//62 65//62 61//62 
f 64//63 61//63 60//63 
f 66//64 63//64 67//64 
f 66//65 62//65 63//65 
f 68//66 69//66 65//66 
f 68//67 65//67 64//67 
f 70//68 66//68 67//68 
f 70//69 67//69 71//69 
f 72//70 69//70 68//70 
f 72//71 70//71 71//71 
f 72//72 71//72 69//72 
f 73//73 74//73 75//73 
f 76//74 75//74 77//74 
f 76//75 73//75 75//75 
f 78//76 77//76 79//76 
f 78//77 76//77 77//77 
f 80//78 79//78 81//78 
f 80//79 78//79 79//79 
f 82//80 81//80 83//80 
f 82//81 80//81 81//81 
f 84//82 83//82 85//82 
f 84//83 82//83 83//83 
f 86//84 84//84 85//84 
f 87//85 85//85 88//85 
f 87//86 86//86 85//86 
f 89//87 88//87 90//87 
f 89//88 87//88 88//88 
f 91//89 90//89 92//89 
f 91//90 89//90 90//90 
f 93//91 92//91 94//91 
f 93//92 94//92 95//92 
f 93//93 91//93 92//93 
f 96//94 93//94 95//94 
f 97//95 95//95 98//95 
f 97//96 98//96 99//96 
f 97//97 96//97 95//97 
f 100//98 97//98 99//98 
f 101//99 99//99 102//99 
f 101//100 102//100 103//100 
f 101//101 100//101 99//101 
f 104//102 101//102 103//102 
f 104//103 103//103 105//103 
f 106//104 104//104 105//104 
f 107//105 106//105 105//105 
f 107//106 105//106 108//106 
f 73//107 107//107 108//107 
f 73//108 108//108 74//108 
f 109//109 110//109 111//109 
f 111//110 110//110 112//110 
f 112//111 113//111 114//111 
f 110//112 113//112 112//112 
f 114//113 115//113 116//113 
f 113//114 115//114 114//114 
f 116//115 117//115 118//115 
f 115//116 117//116 116//116 
f 118//117 119//117 120//117 
f 117//118 119//118 118//118 
f 120//119 121//119 122//119 
f 119//120 121//120 120//120 
f 122//121 123//121 124//121 
f 121//122 123//122 122//122 
f 125//123 126//123 127//123 
f 124//124 126//124 125//124 
f 123//125 126//125 124//125 
f 126//126 128//126 127//126 
f 129//127 130//127 131//127 
f 127//128 130//128 129//128 
f 128//129 130//129 127//129 
f 131//130 132//130 133//130 
f 130//131 132//131 131//131 
f 132//132 134//132 133//132 
f 133//133 135//133 136//133 
f 134//134 135//134 133//134 
f 136//135 137//135 138//135 
f 135//136 137//136 136//136 
f 137//137 139//137 138//137 
f 138//138 139//138 140//138 
f 139//139 141//139 140//139 
f 140//140 141//140 142//140 
f 141//141 143//141 142//141 
f 142//142 143//142 144//142 
f 143//143 109//143 144//143 
f 144//144 109//144 111//144 
f 107//145 73//145 29//145 
f 107//146 29//146 33//146 
f 106//147 33//147 36//147 
f 106//148 107//148 33//148 
f 104//149 36//149 35//149 
f 104//150 106//150 36//150 
f 101//151 35//151 30//151 
f 101//152 104//152 35//152 
f 100//153 30//153 26//153 
f 100//154 101//154 30//154 
f 97//155 26//155 22//155 
f 97//156 100//156 26//156 
f 96//157 22//157 17//157 
f 96//158 97//158 22//158 
f 93//159 17//159 13//159 
f 93//160 96//160 17//160 
f 91//161 13//161 9//161 
f 91//162 93//162 13//162 
f 89//163 9//163 6//163 
f 89//164 91//164 9//164 
f 1//165 89//165 6//165 
f 87//166 89//166 1//166 
f 86//167 1//167 3//167 
f 86//168 87//168 1//168 
f 84//169 3//169 5//169 
f 84//170 86//170 3//170 
f 82//171 5//171 12//171 
f 82//172 84//172 5//172 
f 80//173 12//173 16//173 
f 80//174 82//174 12//174 
f 78//175 80//175 16//175 
f 78//176 16//176 20//176 
f 76//177 78//177 20//177 
f 76//178 20//178 24//178 
f 73//179 76//179 24//179 
f 73//180 24//180 29//180 
f 28//181 110//181 109//181 
f 28//182 21//182 110//182 
f 21//183 113//183 110//183 
f 21//184 19//184 113//184 
f 19//185 115//185 113//185 
f 19//186 15//186 115//186 
f 15//187 117//187 115//187 
f 15//188 11//188 117//188 
f 11//189 119//189 117//189 
f 11//190 8//190 119//190 
f 8//191 121//191 119//191 
f 8//192 4//192 121//192 
f 121//193 2//193 123//193 
f 4//194 2//194 121//194 
f 2//195 126//195 123//195 
f 2//196 7//196 126//196 
f 7//197 128//197 126//197 
f 7//198 10//198 128//198 
f 128//199 14//199 130//199 
f 10//200 14//200 128//200 
f 130//201 18//201 132//201 
f 14//202 18//202 130//202 
f 132//203 23//203 134//203 
f 18//204 23//204 132//204 
f 134//205 25//205 135//205 
f 23//206 25//206 134//206 
f 135//207 27//207 137//207 
f 25//208 27//208 135//208 
f 137//209 31//209 139//209 
f 27//210 31//210 137//210 
f 31//211 34//211 139//211 
f 139//212 34//212 141//212 
f 34//213 143//213 141//213 
f 34//214 32//214 143//214 
f 32//215 109//215 143//215 
f 32//216 28//216 109//216 
f 65//217 144//217 111//217 
f 65//218 69//218 144//218 
f 69//219 142//219 144//219 
f 69//220 71//220 142//220 
f 71//221 140//221 142//221 
f 71//222 67//222 140//222 
f 67//223 138//223 140//223 
f 67//224 63//224 138//224 
f 63//225 136//225 138//225 
f 63//226 59//226 136//226 
f 136//227 58//227 133//227 
f 59//228 58//228 136//228 
f 133//229 53//229 131//229 
f 58//230 53//230 133//230 
f 131//231 50//231 129//231 
f 53//232 50//232 131//232 
f 129//233 46//233 127//233 
f 50//234 46//234 129//234 
f 46//235 125//235 127//235 
f 46//236 42//236 125//236 
f 125//237 41//237 124//237 
f 42//238 41//238 125//238 
f 124//239 37//239 122//239 
f 41//240 37//240 124//240 
f 37//241 120//241 122//241 
f 37//242 44//242 120//242 
f 120//243 48//243 118//243 
f 44//244 48//244 120//244 
f 118//245 52//245 116//245 
f 48//246 52//246 118//246 
f 52//247 56//247 116//247 
f 116//248 56//248 114//248 
f 56//249 61//249 114//249 
f 114//250 61//250 112//250 
f 61//251 65//251 112//251 
f 112//252 65//252 111//252 
f 75//253 74//253 64//253 
f 75//254 64//254 60//254 
f 77//255 60//255 55//255 
f 77//256 75//256 60//256 
f 79//257 55//257 49//257 
f 79//258 77//258 55//258 
f 81//259 49//259 45//259 
f 81//260 79//260 49//260 
f 83//261 45//261 40//261 
f 83//262 81//262 45//262 
f 85//263 40//263 39//263 
f 85//264 83//264 40//264 
f 88//265 39//265 38//265 
f 88//266 85//266 39//266 
f 90//267 38//267 43//267 
f 90//268 88//268 38//268 
f 47//269 90//269 43//269 
f 92//270 90//270 47//270 
f 94//271 47//271 51//271 
f 94//272 92//272 47//272 
f 54//273 94//273 51//273 
f 95//274 94//274 54//274 
f 98//275 54//275 57//275 
f 98//276 95//276 54//276 
f 99//277 57//277 62//277 
f 99//278 98//278 57//278 
f 102//279 62//279 66//279 
f 102//280 99//280 62//280 
f 103//281 66//281 70//281 
f 103//282 102//282 66//282 
f 105//283 103//283 70//283 
f 105//284 70//284 72//284 
f 108//285 105//285 72//285 
f 108//286 72//286 68//286 
f 64//287 108//287 68//287 
f 74//288 108//288 64//288 
